<svg id="Layer_1" data-name="Layer 1" xmlns="http://www.w3.org/2000/svg" viewBox="0 0 512 512"><defs><style>.cls-1{fill:#c7c7c7;}.cls-1,.cls-10,.cls-11,.cls-12,.cls-2,.cls-3,.cls-4,.cls-5,.cls-8{stroke:#231f20;}.cls-1,.cls-10,.cls-11,.cls-12,.cls-2,.cls-3,.cls-8{stroke-miterlimit:10;}.cls-2{fill:gold;}.cls-3{fill:#f3b41b;}.cls-4{fill:#3a8eba;}.cls-4,.cls-5{stroke-linecap:round;stroke-linejoin:round;}.cls-5{fill:#2c5778;}.cls-6{fill:#fff;opacity:0.3;}.cls-7{opacity:0.1;}.cls-8,.cls-9{fill:#aeaeae;}.cls-10{fill:none;}.cls-11{fill:#a8a8a8;}.cls-12{fill:#c1c1c1;}</style></defs><rect class="cls-1" x="425.98" y="244.5" width="16.06" height="14.39" rx="1.66"/><circle class="cls-2" cx="283.04" cy="155.14" r="35.62"/><path class="cls-3" d="M286.15,192a35.62,35.62,0,1,0,13.42-70l-9.82-1.88a35.62,35.62,0,0,1-13.42,70Z"/><circle class="cls-3" cx="283.04" cy="155.14" r="27.62"/><circle class="cls-2" cx="333.77" cy="155.14" r="35.62"/><path class="cls-3" d="M336.88,192a35.62,35.62,0,0,0,13.42-70l-9.82-1.88a35.62,35.62,0,0,1-13.42,70Z"/><circle class="cls-3" cx="333.77" cy="155.14" r="27.62"/><circle class="cls-2" cx="315.87" cy="190.52" r="35.62"/><path class="cls-3" d="M325.87,226.14a35.62,35.62,0,1,0,0-71.24h-10a35.62,35.62,0,1,1,0,71.24Z"/><circle class="cls-3" cx="315.87" cy="190.52" r="27.62"/><circle class="cls-2" cx="369.77" cy="181.32" r="35.62"/><path class="cls-3" d="M372.88,218.19a35.62,35.62,0,0,0,13.42-70l-9.82-1.88a35.62,35.62,0,0,1-13.42,70Z"/><circle class="cls-3" cx="369.77" cy="181.32" r="27.62"/><circle class="cls-2" cx="232.61" cy="154.82" r="35.62"/><path class="cls-3" d="M235.72,191.69a35.62,35.62,0,0,0,13.42-70l-9.82-1.88a35.62,35.62,0,1,1-13.42,70Z"/><circle class="cls-3" cx="232.61" cy="154.82" r="27.62"/><circle class="cls-2" cx="180.3" cy="182.44" r="35.62"/><path class="cls-3" d="M183.41,219.31a35.62,35.62,0,1,0,13.42-70L187,147.46a35.62,35.62,0,1,1-13.42,70Z"/><circle class="cls-3" cx="180.3" cy="182.44" r="27.62"/><circle class="cls-2" cx="217.65" cy="198.52" r="35.62"/><path class="cls-3" d="M227.65,234.14a35.62,35.62,0,1,0,0-71.24h-10a35.62,35.62,0,1,1,0,71.24Z"/><circle class="cls-3" cx="217.65" cy="198.52" r="27.62"/><circle class="cls-2" cx="260.14" cy="183.38" r="35.62"/><path class="cls-3" d="M270.14,219a35.62,35.62,0,0,0,0-71.24h-10a35.62,35.62,0,0,1,0,71.24Z"/><circle class="cls-3" cx="260.14" cy="183.38" r="27.62"/><circle class="cls-2" cx="273.21" cy="209.89" r="35.62"/><path class="cls-3" d="M283.21,245.51a35.62,35.62,0,1,0,0-71.24h-10a35.62,35.62,0,1,1,0,71.24Z"/><circle class="cls-3" cx="273.21" cy="209.89" r="27.62"/><rect class="cls-4" x="394.76" y="75.85" width="19.83" height="115.57" transform="matrix(0.83, 0.56, -0.56, 0.83, 143.54, -203.16)"/><path class="cls-4" d="M492.64,67.5a35.93,35.93,0,0,1-49.89,9.76l-1-.66A35.94,35.94,0,0,1,432,26.72l-9.2-6.2A47.09,47.09,0,0,0,435.59,85.8l1,.66a47.09,47.09,0,0,0,65.28-12.77Z"/><path class="cls-4" d="M309.75,169.32h62a23.14,23.14,0,0,1,23.14,23.14v90.27a3.92,3.92,0,0,1-3.92,3.92H290.52a3.92,3.92,0,0,1-3.92-3.92V192.47a23.14,23.14,0,0,1,23.14-23.14Z" transform="translate(185.33 -151.4) rotate(33.94)"/><path class="cls-5" d="M302.73,191H390a0,0,0,0,1,0,0v84a0,0,0,0,1,0,0H302.73a18,18,0,0,1-18-18V209A18,18,0,0,1,302.73,191Z" transform="translate(719.05 83.23) rotate(123.94)"/><path class="cls-4" d="M424.81,34h83a6.1,6.1,0,0,1,6.1,6.1v8.18a0,0,0,0,1,0,0H418.7a0,0,0,0,1,0,0V40.14a6.1,6.1,0,0,1,6.1-6.1Z" transform="translate(102.43 -253.32) rotate(33.94)"/><circle class="cls-2" cx="291.14" cy="232.25" r="35.62"/><path class="cls-3" d="M301.14,267.88a35.63,35.63,0,0,0,0-71.25h-10a35.63,35.63,0,0,1,0,71.25Z"/><circle class="cls-3" cx="291.14" cy="232.25" r="27.62"/><circle class="cls-2" cx="224.52" cy="224.67" r="35.62"/><path class="cls-3" d="M234.52,260.29a35.63,35.63,0,0,0,0-71.25h-10a35.63,35.63,0,0,1,0,71.25Z"/><circle class="cls-3" cx="224.52" cy="224.67" r="27.62"/><circle class="cls-2" cx="341.52" cy="221.62" r="35.62"/><path class="cls-3" d="M327.74,256a35.62,35.62,0,1,0,43.43-56.47l-7.93-6.1a35.62,35.62,0,1,1-43.43,56.47Z"/><circle class="cls-3" cx="341.52" cy="221.62" r="27.62"/><ellipse class="cls-2" cx="389.31" cy="213.4" rx="35.62" ry="31.31" transform="translate(-17.18 391.91) rotate(-52.44)"/><path class="cls-3" d="M374.56,247c13.71,10.54,34.55,6.44,46.54-9.15s10.6-36.79-3.11-47.33l-7-5.36c13.71,10.55,15.1,31.73,3.11,47.33s-32.83,19.69-46.54,9.15Z"/><ellipse class="cls-3" cx="389.31" cy="213.4" rx="27.62" ry="24.28" transform="translate(-17.18 391.91) rotate(-52.44)"/><ellipse class="cls-2" cx="173.19" cy="222.42" rx="31.31" ry="35.62" transform="matrix(0.86, -0.51, 0.51, 0.86, -89.25, 119.51)"/><path class="cls-3" d="M183.81,257.54c-14.88,8.83-35.07,2.27-45.11-14.65s-6.12-37.79,8.75-46.62l7.56-4.48c-14.87,8.82-18.79,29.69-8.75,46.61s30.23,23.48,45.11,14.66Z"/><ellipse class="cls-3" cx="173.19" cy="222.42" rx="24.28" ry="27.62" transform="translate(-89.25 119.51) rotate(-30.68)"/><ellipse class="cls-2" cx="62.49" cy="470.56" rx="39.79" ry="19.24"/><path class="cls-3" d="M102.28,481.73c0,10.62-17.81,19.23-39.79,19.23S22.7,492.35,22.7,481.73V470.56c0,10.62,17.82,19.23,39.79,19.23s39.79-8.61,39.79-19.23Z"/><ellipse class="cls-3" cx="62.49" cy="470.56" rx="30.85" ry="13.13"/><ellipse class="cls-2" cx="117.03" cy="456.36" rx="19.24" ry="39.79" transform="translate(-243.51 153.09) rotate(-35.55)"/><path class="cls-3" d="M131.07,495.23c-8.64,6.18-26-3.31-38.78-21.19s-16.12-37.38-7.48-43.56L93.9,424c-8.65,6.18-5.3,25.68,7.48,43.56s30.14,27.36,38.78,21.19Z"/><ellipse class="cls-3" cx="117.03" cy="456.36" rx="13.13" ry="30.85" transform="translate(-243.51 153.09) rotate(-35.55)"/><ellipse class="cls-2" cx="91.14" cy="364.09" rx="19.24" ry="39.79" transform="translate(-194.69 120.84) rotate(-35.55)"/><path class="cls-3" d="M105.19,403c-8.65,6.18-26-3.31-38.79-21.19s-16.12-37.38-7.48-43.56L68,331.72c-8.64,6.17-5.29,25.67,7.48,43.55s30.14,27.37,38.79,21.2Z"/><ellipse class="cls-3" cx="91.14" cy="364.09" rx="13.13" ry="30.85" transform="translate(-194.69 120.84) rotate(-35.55)"/><ellipse class="cls-2" cx="71.3" cy="249.04" rx="39.79" ry="19.24" transform="translate(-172.78 162.27) rotate(-54.45)"/><path class="cls-3" d="M57.25,287.91c8.65,6.17,26-3.31,38.79-21.19s16.12-37.39,7.48-43.56l-9.09-6.5c8.64,6.18,5.3,25.68-7.48,43.56s-30.14,27.37-38.78,21.19Z"/><ellipse class="cls-3" cx="71.3" cy="249.04" rx="30.85" ry="13.13" transform="translate(-172.78 162.27) rotate(-54.45)"/><path class="cls-1" d="M127.42,244.5h7a4.55,4.55,0,0,1,4.55,4.55v9.85a0,0,0,0,1,0,0H127.42a4.55,4.55,0,0,1-4.55-4.55v-5.3A4.55,4.55,0,0,1,127.42,244.5Z"/><polygon class="cls-1" points="133.13 232.25 182.13 491.53 386.22 491.53 433.32 232.25 133.13 232.25"/><polygon class="cls-6" points="218.5 491.53 169.5 232.25 151.93 232.25 200.93 491.53 218.5 491.53"/><polygon class="cls-7" points="388.47 232.25 341.37 491.53 386.22 491.53 433.32 232.25 388.47 232.25"/><rect class="cls-8" x="176.43" y="491.53" width="213.6" height="8.92" rx="2.87"/><rect class="cls-8" x="128.5" y="223.33" width="309.46" height="8.92" rx="3.25"/><polygon class="cls-9" points="421.71 296.24 420.73 301.6 146.25 301.6 145.23 296.24 421.71 296.24"/><polygon class="cls-9" points="420.02 305.51 419.45 308.61 147.57 308.61 146.98 305.51 420.02 305.51"/><polygon class="cls-9" points="418.64 313.13 418.07 316.22 149 316.22 148.42 313.13 418.64 313.13"/><polygon class="cls-9" points="417.42 319.79 416.86 322.88 150.26 322.88 149.68 319.79 417.42 319.79"/><polygon class="cls-10" points="133.13 232.25 182.13 491.53 386.22 491.53 433.32 232.25 133.13 232.25"/><path class="cls-11" d="M440.12,244.5a3.75,3.75,0,0,0-3.75,3.59c-3.7,82-70.74,147.34-152.9,147.34S134.17,330,130.56,247.91A3.57,3.57,0,0,0,127,244.5h-1.83a4,4,0,0,0-4,4.19c4,86.79,75.28,156.16,162.3,156.16,87.31,0,158.74-69.83,162.33-157a3.18,3.18,0,0,0-3.16-3.31Z"/><rect class="cls-12" x="247.52" y="388.12" width="71.9" height="19.98" rx="3.69"/></svg>